STARTFONT 2.1
COMMENT $XConsortium: lutBS14.bdf,v 1.9 94/04/02 16:11:15 gildea Exp $
COMMENT  (c) Copyright Bigelow & Holmes 1986, 1985. Lucida is a registered
COMMENT  trademark of Bigelow & Holmes. See LEGAL NOTICE file for terms 
COMMENT  of the license. 
COMMENT GRID 0014 0014 0200 0200
COMMENT  
COMMENT  Translation to ISO8859-2 by Cub Soft;  Petr.Kolar@vslib.cz
COMMENT  
FONT -B&H-LucidaTypewriter-Bold-R-Normal-Sans-14-140-75-75-M-90-ISO8859-2
SIZE 14 72 72
FONTBOUNDINGBOX 9 15 0 -2
STARTPROPERTIES 20
COMMENT Begin LogicalFontDescription
FONTNAME_REGISTRY ""
FOUNDRY "B&H"
FAMILY_NAME "LucidaTypewriter"
WEIGHT_NAME "Bold"
SLANT "R"
SETWIDTH_NAME "Normal"
ADD_STYLE_NAME "Sans"
PIXEL_SIZE 14
POINT_SIZE 140
RESOLUTION_X 75
RESOLUTION_Y 75
SPACING "M"
AVERAGE_WIDTH 90
CHARSET_REGISTRY "ISO8859"
CHARSET_ENCODING "2"
COMMENT END LogicalFontDescription
FONT_ASCENT 13
FONT_DESCENT 2
DEFAULT_CHAR 0
COPYRIGHT "Copyright Bigelow & Holmes 1986, 1985., Copyright 1996 Cub Soft"
FACE_NAME "Lucida Sans Typewriter Bold"
ENDPROPERTIES
CHARS 191
STARTCHAR space
ENCODING 32
SWIDTH 602 0
DWIDTH 9 0
BBX 1 1 0 0
BITMAP
00
ENDCHAR
STARTCHAR exclam
ENCODING 33
SWIDTH 602 0
DWIDTH 9 0
BBX 2 10 3 0
BITMAP
c0
c0
c0
c0
c0
c0
80
00
c0
c0
ENDCHAR
STARTCHAR quotedbl
ENCODING 34
SWIDTH 602 0
DWIDTH 9 0
BBX 4 4 3 7
BITMAP
90
90
90
90
ENDCHAR
STARTCHAR numbersign
ENCODING 35
SWIDTH 602 0
DWIDTH 9 0
BBX 9 10 0 0
BITMAP
1b00
1b00
1b00
ff80
3600
3600
ff80
6c00
6c00
6c00
ENDCHAR
STARTCHAR dollar
ENCODING 36
SWIDTH 602 0
DWIDTH 9 0
BBX 7 12 1 -1
BITMAP
08
7c
ca
c8
e8
78
3c
2e
26
a6
7c
20
ENDCHAR
STARTCHAR percent
ENCODING 37
SWIDTH 602 0
DWIDTH 9 0
BBX 8 10 1 0
BITMAP
70
d9
da
74
08
10
2e
5b
9b
0e
ENDCHAR
STARTCHAR ampersand
ENCODING 38
SWIDTH 602 0
DWIDTH 9 0
BBX 8 10 1 0
BITMAP
38
6c
6c
68
33
5b
ca
cc
ee
73
ENDCHAR
STARTCHAR apostrophe
ENCODING 39
SWIDTH 602 0
DWIDTH 9 0
BBX 3 4 3 7
BITMAP
e0
e0
20
c0
ENDCHAR
STARTCHAR parenleft
ENCODING 40
SWIDTH 602 0
DWIDTH 9 0
BBX 5 12 2 -1
BITMAP
18
30
60
60
c0
c0
c0
c0
60
60
30
18
ENDCHAR
STARTCHAR parenright
ENCODING 41
SWIDTH 602 0
DWIDTH 9 0
BBX 5 12 2 -1
BITMAP
c0
60
30
30
18
18
18
18
30
30
60
c0
ENDCHAR
STARTCHAR asterisk
ENCODING 42
SWIDTH 602 0
DWIDTH 9 0
BBX 5 5 2 5
BITMAP
20
a8
70
a8
20
ENDCHAR
STARTCHAR plus
ENCODING 43
SWIDTH 602 0
DWIDTH 9 0
BBX 7 7 1 1
BITMAP
10
10
10
fe
10
10
10
ENDCHAR
STARTCHAR comma
ENCODING 44
SWIDTH 602 0
DWIDTH 9 0
BBX 3 4 3 -2
BITMAP
e0
e0
20
c0
ENDCHAR
STARTCHAR minus
ENCODING 45
SWIDTH 602 0
DWIDTH 9 0
BBX 7 1 1 4
BITMAP
fe
ENDCHAR
STARTCHAR period
ENCODING 46
SWIDTH 602 0
DWIDTH 9 0
BBX 3 2 3 0
BITMAP
e0
e0
ENDCHAR
STARTCHAR slash
ENCODING 47
SWIDTH 602 0
DWIDTH 9 0
BBX 7 12 1 -1
BITMAP
06
06
0c
0c
18
18
30
30
60
60
c0
c0
ENDCHAR
STARTCHAR zero
ENCODING 48
SWIDTH 602 0
DWIDTH 9 0
BBX 7 10 1 0
BITMAP
38
6c
c6
c6
c6
c6
c6
c6
6c
38
ENDCHAR
STARTCHAR one
ENCODING 49
SWIDTH 602 0
DWIDTH 9 0
BBX 4 10 2 0
BITMAP
30
70
b0
30
30
30
30
30
30
30
ENDCHAR
STARTCHAR two
ENCODING 50
SWIDTH 602 0
DWIDTH 9 0
BBX 7 10 1 0
BITMAP
7c
ce
06
06
0c
18
30
60
fe
fe
ENDCHAR
STARTCHAR three
ENCODING 51
SWIDTH 602 0
DWIDTH 9 0
BBX 7 10 1 0
BITMAP
7c
ce
06
0c
38
0c
06
06
ce
7c
ENDCHAR
STARTCHAR four
ENCODING 52
SWIDTH 602 0
DWIDTH 9 0
BBX 7 10 1 0
BITMAP
0c
1c
2c
4c
8c
fe
fe
0c
0c
0c
ENDCHAR
STARTCHAR five
ENCODING 53
SWIDTH 602 0
DWIDTH 9 0
BBX 7 10 1 0
BITMAP
fe
fe
80
80
fc
0e
06
06
cc
78
ENDCHAR
STARTCHAR six
ENCODING 54
SWIDTH 602 0
DWIDTH 9 0
BBX 7 10 1 0
BITMAP
3c
66
c0
d8
ec
c6
c6
c6
6c
38
ENDCHAR
STARTCHAR seven
ENCODING 55
SWIDTH 602 0
DWIDTH 9 0
BBX 7 10 1 0
BITMAP
fe
fe
06
0c
18
30
30
60
60
60
ENDCHAR
STARTCHAR eight
ENCODING 56
SWIDTH 602 0
DWIDTH 9 0
BBX 7 10 1 0
BITMAP
7c
c6
c6
e4
78
7c
ce
c6
c6
7c
ENDCHAR
STARTCHAR nine
ENCODING 57
SWIDTH 602 0
DWIDTH 9 0
BBX 7 10 1 0
BITMAP
38
6c
c6
c6
c6
6e
36
06
cc
78
ENDCHAR
STARTCHAR colon
ENCODING 58
SWIDTH 602 0
DWIDTH 9 0
BBX 2 7 3 0
BITMAP
c0
c0
00
00
00
c0
c0
ENDCHAR
STARTCHAR semicolon
ENCODING 59
SWIDTH 602 0
DWIDTH 9 0
BBX 2 9 3 -2
BITMAP
c0
c0
00
00
00
c0
c0
40
80
ENDCHAR
STARTCHAR less
ENCODING 60
SWIDTH 602 0
DWIDTH 9 0
BBX 5 7 2 1
BITMAP
18
30
60
c0
60
30
18
ENDCHAR
STARTCHAR equal
ENCODING 61
SWIDTH 602 0
DWIDTH 9 0
BBX 7 3 1 3
BITMAP
fe
00
fe
ENDCHAR
STARTCHAR greater
ENCODING 62
SWIDTH 602 0
DWIDTH 9 0
BBX 5 7 2 1
BITMAP
c0
60
30
18
30
60
c0
ENDCHAR
STARTCHAR question
ENCODING 63
SWIDTH 602 0
DWIDTH 9 0
BBX 7 10 1 0
BITMAP
7c
c6
06
06
1c
30
30
00
30
30
ENDCHAR
STARTCHAR at
ENCODING 64
SWIDTH 602 0
DWIDTH 9 0
BBX 9 10 0 0
BITMAP
1e00
6300
4300
8f00
9b00
9b00
9b00
4d80
6000
1e00
ENDCHAR
STARTCHAR A
ENCODING 65
SWIDTH 602 0
DWIDTH 9 0
BBX 8 10 1 0
BITMAP
18
18
2c
2c
66
46
fe
c3
c3
c3
ENDCHAR
STARTCHAR B
ENCODING 66
SWIDTH 602 0
DWIDTH 9 0
BBX 6 10 2 0
BITMAP
f8
cc
cc
c8
f0
c8
cc
cc
cc
f8
ENDCHAR
STARTCHAR C
ENCODING 67
SWIDTH 602 0
DWIDTH 9 0
BBX 7 10 1 0
BITMAP
3c
66
c0
c0
c0
c0
c0
c0
66
3c
ENDCHAR
STARTCHAR D
ENCODING 68
SWIDTH 602 0
DWIDTH 9 0
BBX 7 10 1 0
BITMAP
f8
cc
c6
c6
c6
c6
c6
c6
cc
f8
ENDCHAR
STARTCHAR E
ENCODING 69
SWIDTH 602 0
DWIDTH 9 0
BBX 6 10 2 0
BITMAP
fc
c0
c0
c0
f8
c0
c0
c0
c0
fc
ENDCHAR
STARTCHAR F
ENCODING 70
SWIDTH 602 0
DWIDTH 9 0
BBX 6 10 2 0
BITMAP
fc
c0
c0
c0
c0
fc
c0
c0
c0
c0
ENDCHAR
STARTCHAR G
ENCODING 71
SWIDTH 602 0
DWIDTH 9 0
BBX 7 10 1 0
BITMAP
3c
66
c0
c0
c0
c6
c6
c6
66
3e
ENDCHAR
STARTCHAR H
ENCODING 72
SWIDTH 602 0
DWIDTH 9 0
BBX 7 10 1 0
BITMAP
c6
c6
c6
c6
fe
c6
c6
c6
c6
c6
ENDCHAR
STARTCHAR I
ENCODING 73
SWIDTH 602 0
DWIDTH 9 0
BBX 6 10 2 0
BITMAP
fc
30
30
30
30
30
30
30
30
fc
ENDCHAR
STARTCHAR J
ENCODING 74
SWIDTH 602 0
DWIDTH 9 0
BBX 6 10 1 0
BITMAP
7c
0c
0c
0c
0c
0c
0c
0c
18
f0
ENDCHAR
STARTCHAR K
ENCODING 75
SWIDTH 602 0
DWIDTH 9 0
BBX 7 10 1 0
BITMAP
c6
cc
c8
d0
f0
d8
cc
cc
c6
c6
ENDCHAR
STARTCHAR L
ENCODING 76
SWIDTH 602 0
DWIDTH 9 0
BBX 6 10 2 0
BITMAP
c0
c0
c0
c0
c0
c0
c0
c0
c0
fc
ENDCHAR
STARTCHAR M
ENCODING 77
SWIDTH 602 0
DWIDTH 9 0
BBX 8 10 1 0
BITMAP
c3
c3
e7
e7
ef
bb
bb
93
83
83
ENDCHAR
STARTCHAR N
ENCODING 78
SWIDTH 602 0
DWIDTH 9 0
BBX 7 10 1 0
BITMAP
c2
e2
e2
b2
b2
9a
9a
8e
8e
86
ENDCHAR
STARTCHAR O
ENCODING 79
SWIDTH 602 0
DWIDTH 9 0
BBX 8 10 1 0
BITMAP
3c
66
c3
c3
c3
c3
c3
c3
66
3c
ENDCHAR
STARTCHAR P
ENCODING 80
SWIDTH 602 0
DWIDTH 9 0
BBX 7 10 1 0
BITMAP
fc
c6
c6
c6
cc
f8
c0
c0
c0
c0
ENDCHAR
STARTCHAR Q
ENCODING 81
SWIDTH 602 0
DWIDTH 9 0
BBX 8 12 1 -2
BITMAP
3c
66
c3
c3
c3
c3
c3
c3
66
3c
06
03
ENDCHAR
STARTCHAR R
ENCODING 82
SWIDTH 602 0
DWIDTH 9 0
BBX 7 10 1 0
BITMAP
f8
cc
cc
cc
d8
f0
cc
cc
c6
c6
ENDCHAR
STARTCHAR S
ENCODING 83
SWIDTH 602 0
DWIDTH 9 0
BBX 7 10 1 0
BITMAP
7c
c6
c0
e0
78
1c
0e
06
c6
7c
ENDCHAR
STARTCHAR T
ENCODING 84
SWIDTH 602 0
DWIDTH 9 0
BBX 8 10 1 0
BITMAP
ff
18
18
18
18
18
18
18
18
18
ENDCHAR
STARTCHAR U
ENCODING 85
SWIDTH 602 0
DWIDTH 9 0
BBX 7 10 1 0
BITMAP
c6
c6
c6
c6
c6
c6
c6
c6
6c
38
ENDCHAR
STARTCHAR V
ENCODING 86
SWIDTH 602 0
DWIDTH 9 0
BBX 8 10 1 0
BITMAP
c3
c3
c3
62
62
66
34
34
18
18
ENDCHAR
STARTCHAR W
ENCODING 87
SWIDTH 602 0
DWIDTH 9 0
BBX 8 10 1 0
BITMAP
c3
c3
db
db
db
db
66
66
66
66
ENDCHAR
STARTCHAR X
ENCODING 88
SWIDTH 602 0
DWIDTH 9 0
BBX 7 10 1 0
BITMAP
c6
c6
c6
64
38
38
4c
c6
c6
c6
ENDCHAR
STARTCHAR Y
ENCODING 89
SWIDTH 602 0
DWIDTH 9 0
BBX 8 10 1 0
BITMAP
c3
c3
62
66
34
18
18
18
18
18
ENDCHAR
STARTCHAR Z
ENCODING 90
SWIDTH 602 0
DWIDTH 9 0
BBX 7 10 1 0
BITMAP
fe
06
0c
18
18
30
60
60
c0
fe
ENDCHAR
STARTCHAR bracketleft
ENCODING 91
SWIDTH 602 0
DWIDTH 9 0
BBX 5 12 2 -1
BITMAP
f8
c0
c0
c0
c0
c0
c0
c0
c0
c0
c0
f8
ENDCHAR
STARTCHAR backslash
ENCODING 92
SWIDTH 602 0
DWIDTH 9 0
BBX 7 12 1 -1
BITMAP
c0
c0
60
60
30
30
18
18
0c
0c
06
06
ENDCHAR
STARTCHAR bracketright
ENCODING 93
SWIDTH 602 0
DWIDTH 9 0
BBX 5 12 2 -1
BITMAP
f8
18
18
18
18
18
18
18
18
18
18
f8
ENDCHAR
STARTCHAR asciicircum
ENCODING 94
SWIDTH 602 0
DWIDTH 9 0
BBX 6 7 2 3
BITMAP
30
30
78
48
cc
84
84
ENDCHAR
STARTCHAR underscore
ENCODING 95
SWIDTH 602 0
DWIDTH 9 0
BBX 9 1 0 -1
BITMAP
ff80
ENDCHAR
STARTCHAR grave
ENCODING 96
SWIDTH 602 0
DWIDTH 9 0
BBX 4 2 2 9
BITMAP
c0
30
ENDCHAR
STARTCHAR a
ENCODING 97
SWIDTH 602 0
DWIDTH 9 0
BBX 8 8 1 0
BITMAP
7c
06
06
7e
c6
c6
ce
77
ENDCHAR
STARTCHAR b
ENCODING 98
SWIDTH 602 0
DWIDTH 9 0
BBX 7 11 1 0
BITMAP
c0
c0
c0
d8
ec
c6
c6
c6
c6
cc
f8
ENDCHAR
STARTCHAR c
ENCODING 99
SWIDTH 602 0
DWIDTH 9 0
BBX 7 8 1 0
BITMAP
3c
66
c0
c0
c0
c0
62
3c
ENDCHAR
STARTCHAR d
ENCODING 100
SWIDTH 602 0
DWIDTH 9 0
BBX 7 11 1 0
BITMAP
06
06
06
3e
66
c6
c6
c6
c6
6e
36
ENDCHAR
STARTCHAR e
ENCODING 101
SWIDTH 602 0
DWIDTH 9 0
BBX 7 8 1 0
BITMAP
3c
66
c6
fe
c0
c0
62
3c
ENDCHAR
STARTCHAR f
ENCODING 102
SWIDTH 602 0
DWIDTH 9 0
BBX 7 11 1 0
BITMAP
1e
30
30
30
fe
30
30
30
30
30
30
ENDCHAR
STARTCHAR g
ENCODING 103
SWIDTH 602 0
DWIDTH 9 0
BBX 7 10 1 -2
BITMAP
3e
66
c6
c6
c6
6e
36
06
cc
78
ENDCHAR
STARTCHAR h
ENCODING 104
SWIDTH 602 0
DWIDTH 9 0
BBX 7 11 1 0
BITMAP
c0
c0
c0
dc
ee
c6
c6
c6
c6
c6
c6
ENDCHAR
STARTCHAR i
ENCODING 105
SWIDTH 602 0
DWIDTH 9 0
BBX 5 11 1 0
BITMAP
18
18
00
f8
18
18
18
18
18
18
18
ENDCHAR
STARTCHAR j
ENCODING 106
SWIDTH 602 0
DWIDTH 9 0
BBX 6 13 1 -2
BITMAP
0c
0c
00
7c
0c
0c
0c
0c
0c
0c
0c
0c
f8
ENDCHAR
STARTCHAR k
ENCODING 107
SWIDTH 602 0
DWIDTH 9 0
BBX 8 11 1 0
BITMAP
c0
c0
c0
c6
c4
c8
f0
d8
cc
c6
c7
ENDCHAR
STARTCHAR l
ENCODING 108
SWIDTH 602 0
DWIDTH 9 0
BBX 5 11 1 0
BITMAP
f8
18
18
18
18
18
18
18
18
18
18
ENDCHAR
STARTCHAR m
ENCODING 109
SWIDTH 602 0
DWIDTH 9 0
BBX 7 8 1 0
BITMAP
ac
d6
d6
d6
d6
d6
d6
d6
ENDCHAR
STARTCHAR n
ENCODING 110
SWIDTH 602 0
DWIDTH 9 0
BBX 7 8 1 0
BITMAP
dc
ee
c6
c6
c6
c6
c6
c6
ENDCHAR
STARTCHAR o
ENCODING 111
SWIDTH 602 0
DWIDTH 9 0
BBX 7 8 1 0
BITMAP
38
6c
c6
c6
c6
c6
6c
38
ENDCHAR
STARTCHAR p
ENCODING 112
SWIDTH 602 0
DWIDTH 9 0
BBX 7 10 1 -2
BITMAP
d8
ec
c6
c6
c6
c6
cc
f8
c0
c0
ENDCHAR
STARTCHAR q
ENCODING 113
SWIDTH 602 0
DWIDTH 9 0
BBX 7 10 1 -2
BITMAP
3e
66
c6
c6
c6
c6
6e
36
06
06
ENDCHAR
STARTCHAR r
ENCODING 114
SWIDTH 602 0
DWIDTH 9 0
BBX 6 8 2 0
BITMAP
cc
dc
e4
c0
c0
c0
c0
c0
ENDCHAR
STARTCHAR s
ENCODING 115
SWIDTH 602 0
DWIDTH 9 0
BBX 7 8 1 0
BITMAP
7c
c6
c0
f8
3e
06
c6
7c
ENDCHAR
STARTCHAR t
ENCODING 116
SWIDTH 602 0
DWIDTH 9 0
BBX 7 10 1 0
BITMAP
30
30
fe
30
30
30
30
30
30
1e
ENDCHAR
STARTCHAR u
ENCODING 117
SWIDTH 602 0
DWIDTH 9 0
BBX 7 8 1 0
BITMAP
c6
c6
c6
c6
c6
c6
ee
76
ENDCHAR
STARTCHAR v
ENCODING 118
SWIDTH 602 0
DWIDTH 9 0
BBX 7 8 1 0
BITMAP
c6
c6
c6
6c
6c
68
38
30
ENDCHAR
STARTCHAR w
ENCODING 119
SWIDTH 602 0
DWIDTH 9 0
BBX 8 8 1 0
BITMAP
c1
c1
c9
dd
dd
66
66
66
ENDCHAR
STARTCHAR x
ENCODING 120
SWIDTH 602 0
DWIDTH 9 0
BBX 7 8 1 0
BITMAP
c6
c6
64
38
38
4c
c6
c6
ENDCHAR
STARTCHAR y
ENCODING 121
SWIDTH 602 0
DWIDTH 9 0
BBX 7 10 1 -2
BITMAP
c6
c6
c6
6c
6c
38
30
30
60
60
ENDCHAR
STARTCHAR z
ENCODING 122
SWIDTH 602 0
DWIDTH 9 0
BBX 7 8 1 0
BITMAP
fe
06
0c
18
30
60
c0
fe
ENDCHAR
STARTCHAR braceleft
ENCODING 123
SWIDTH 602 0
DWIDTH 9 0
BBX 6 12 2 -1
BITMAP
3c
60
60
30
10
e0
10
30
60
60
60
3c
ENDCHAR
STARTCHAR bar
ENCODING 124
SWIDTH 602 0
DWIDTH 9 0
BBX 2 12 4 -1
BITMAP
c0
c0
c0
c0
c0
c0
c0
c0
c0
c0
c0
c0
ENDCHAR
STARTCHAR braceright
ENCODING 125
SWIDTH 602 0
DWIDTH 9 0
BBX 6 12 1 -1
BITMAP
f0
18
18
30
20
1c
20
30
18
18
18
f0
ENDCHAR
STARTCHAR asciitilde
ENCODING 126
SWIDTH 602 0
DWIDTH 9 0
BBX 7 3 1 3
BITMAP
72
ba
9c
ENDCHAR
STARTCHAR nobreakspace
ENCODING 160
SWIDTH 602 0
DWIDTH 9 0
BBX 1 1 0 0
BITMAP
00
ENDCHAR
STARTCHAR Aogonek
ENCODING 161
SWIDTH 602 0
DWIDTH 9 0
BBX 8 12 1 -2
BITMAP
18
18
2c
2c
66
46
fe
c3
c3
c3
20
18
ENDCHAR
STARTCHAR breve
ENCODING 162
SWIDTH 602 0
DWIDTH 9 0
BBX 5 2 2 9
BITMAP
88
70
ENDCHAR
STARTCHAR Lstroke
ENCODING 163
SWIDTH 602 0
DWIDTH 9 0
BBX 8 10 0 0
BITMAP
30
30
30
3c
f0
30
30
30
30
3f
ENDCHAR
STARTCHAR currency
ENCODING 164
SWIDTH 602 0
DWIDTH 9 0
BBX 9 10 0 0
BITMAP
8080
4100
3e00
3600
6300
6300
3600
3e00
4100
8080
ENDCHAR
STARTCHAR Lcaron
ENCODING 165
SWIDTH 602 0
DWIDTH 9 0
BBX 6 11 2 0
BITMAP
1c
dc
c4
d8
c0
c0
c0
c0
c0
c0
fc
ENDCHAR
STARTCHAR Sacute
ENCODING 166
SWIDTH 602 0
DWIDTH 9 0
BBX 7 13 1 0
BITMAP
06
18
00
7c
c6
c0
e0
78
1c
0e
06
c6
7c
ENDCHAR
STARTCHAR section
ENCODING 167
SWIDTH 602 0
DWIDTH 9 0
BBX 7 11 1 -1
BITMAP
7c
c6
c0
78
cc
c6
66
3c
06
c6
7c
ENDCHAR
STARTCHAR diaeresis
ENCODING 168
SWIDTH 602 0
DWIDTH 9 0
BBX 3 2 3 9
BITMAP
a0
a0
ENDCHAR
STARTCHAR Scaron
ENCODING 169
SWIDTH 602 0
DWIDTH 9 0
BBX 7 13 1 0
BITMAP
24
18
00
7c
c6
c0
e0
78
1c
0e
06
c6
7c
ENDCHAR
STARTCHAR Scedilla
ENCODING 170
SWIDTH 602 0
DWIDTH 9 0
BBX 7 12 1 -2
BITMAP
7c
c6
c0
e0
78
1c
0e
06
c6
7c
08
30
ENDCHAR
STARTCHAR Tcaron
ENCODING 171
SWIDTH 602 0
DWIDTH 9 0
BBX 8 13 1 0
BITMAP
24
18
00
ff
18
18
18
18
18
18
18
18
18
ENDCHAR
STARTCHAR Zacute
ENCODING 172
SWIDTH 602 0
DWIDTH 9 0
BBX 7 13 1 0
BITMAP
06
18
00
fe
06
0c
18
18
30
60
60
c0
fe
ENDCHAR
STARTCHAR hyphen
ENCODING 173
SWIDTH 602 0
DWIDTH 9 0
BBX 4 2 3 3
BITMAP
f0
f0
ENDCHAR
STARTCHAR Zcaron
ENCODING 174
SWIDTH 602 0
DWIDTH 9 0
BBX 7 13 1 0
BITMAP
24
18
00
fe
06
0c
18
18
30
60
60
c0
fe
ENDCHAR
STARTCHAR Zabovedot
ENCODING 175
SWIDTH 602 0
DWIDTH 9 0
BBX 7 13 1 0
BITMAP
18
18
00
fe
06
0c
18
18
30
60
60
c0
fe
ENDCHAR
STARTCHAR degree
ENCODING 176
SWIDTH 602 0
DWIDTH 9 0
BBX 5 4 2 6
BITMAP
70
d8
d8
70
ENDCHAR
STARTCHAR aogonek
ENCODING 177
SWIDTH 602 0
DWIDTH 9 0
BBX 8 10 1 -2
BITMAP
7c
06
06
7e
c6
c6
ce
77
20
18
ENDCHAR
STARTCHAR ogonek
ENCODING 178
SWIDTH 602 0
DWIDTH 9 0
BBX 3 2 4 -2
BITMAP
80
60
ENDCHAR
STARTCHAR lstroke
ENCODING 179
SWIDTH 602 0
DWIDTH 9 0
BBX 7 11 1 0
BITMAP
f8
18
18
18
1e
78
18
18
18
18
18
ENDCHAR
STARTCHAR acute
ENCODING 180
SWIDTH 602 0
DWIDTH 9 0
BBX 4 2 3 9
BITMAP
30
c0
ENDCHAR
STARTCHAR lcaron
ENCODING 181
SWIDTH 928 0
DWIDTH 13 0
BBX 9 12 1 0
BITMAP
0380
fb80
1880
1b00
1800
1800
1800
1800
1800
1800
1800
1800
ENDCHAR
STARTCHAR sacute
ENCODING 182
SWIDTH 602 0
DWIDTH 9 0
BBX 7 11 1 0
BITMAP
06
18
00
7c
c6
c0
f8
3e
06
c6
7c
ENDCHAR
STARTCHAR caron
ENCODING 183
SWIDTH 602 0
DWIDTH 9 0
BBX 4 2 3 9
BITMAP
90
60
ENDCHAR
STARTCHAR cedilla
ENCODING 184
SWIDTH 602 0
DWIDTH 9 0
BBX 3 2 2 -2
BITMAP
20
c0
ENDCHAR
STARTCHAR scaron
ENCODING 185
SWIDTH 602 0
DWIDTH 9 0
BBX 7 11 1 0
BITMAP
24
18
00
7c
c6
c0
f8
3e
06
c6
7c
ENDCHAR
STARTCHAR scedilla
ENCODING 186
SWIDTH 602 0
DWIDTH 9 0
BBX 7 10 1 -2
BITMAP
7c
c6
c0
f8
3e
06
c6
7c
08
30
ENDCHAR
STARTCHAR tcaron
ENCODING 187
SWIDTH 714 0
DWIDTH 10 0
BBX 8 13 1 0
BITMAP
07
07
01
36
30
fe
30
30
30
30
30
30
1e
ENDCHAR
STARTCHAR zacute
ENCODING 188
SWIDTH 602 0
DWIDTH 9 0
BBX 7 11 1 0
BITMAP
06
18
00
fe
06
0c
18
30
60
c0
fe
ENDCHAR
STARTCHAR doubleacute
ENCODING 189
SWIDTH 602 0
DWIDTH 9 0
BBX 5 2 2 9
BITMAP
48
90
ENDCHAR
STARTCHAR zcaron
ENCODING 190
SWIDTH 602 0
DWIDTH 9 0
BBX 7 11 1 0
BITMAP
24
18
00
fe
06
0c
18
30
60
c0
fe
ENDCHAR
STARTCHAR zabovedot
ENCODING 191
SWIDTH 602 0
DWIDTH 9 0
BBX 7 11 1 0
BITMAP
18
18
00
fe
06
0c
18
30
60
c0
fe
ENDCHAR
STARTCHAR Racute
ENCODING 192
SWIDTH 602 0
DWIDTH 9 0
BBX 7 13 1 0
BITMAP
0c
30
00
f8
cc
cc
cc
d8
f0
cc
cc
c6
c6
ENDCHAR
STARTCHAR Aacute
ENCODING 193
SWIDTH 602 0
DWIDTH 9 0
BBX 8 13 1 0
BITMAP
0c
30
00
18
18
2c
2c
66
46
fe
c3
c3
c3
ENDCHAR
STARTCHAR Acircumflex
ENCODING 194
SWIDTH 602 0
DWIDTH 9 0
BBX 8 13 1 0
BITMAP
18
24
00
18
18
2c
2c
66
46
fe
c3
c3
c3
ENDCHAR
STARTCHAR Abreve
ENCODING 195
SWIDTH 602 0
DWIDTH 9 0
BBX 8 13 1 0
BITMAP
44
38
00
18
18
2c
2c
66
46
fe
c3
c3
c3
ENDCHAR
STARTCHAR Adiaeresis
ENCODING 196
SWIDTH 602 0
DWIDTH 9 0
BBX 8 13 1 0
BITMAP
24
24
00
18
18
2c
2c
66
46
fe
c3
c3
c3
ENDCHAR
STARTCHAR Lacute
ENCODING 197
SWIDTH 602 0
DWIDTH 9 0
BBX 6 13 2 0
BITMAP
30
c0
00
c0
c0
c0
c0
c0
c0
c0
c0
c0
fc
ENDCHAR
STARTCHAR Cacute
ENCODING 198
SWIDTH 602 0
DWIDTH 9 0
BBX 7 13 1 0
BITMAP
06
18
00
3c
66
c0
c0
c0
c0
c0
c0
66
3c
ENDCHAR
STARTCHAR Ccedilla
ENCODING 199
SWIDTH 602 0
DWIDTH 9 0
BBX 7 12 1 -2
BITMAP
3c
66
c0
c0
c0
c0
c0
c0
66
3c
08
30
ENDCHAR
STARTCHAR Ccaron
ENCODING 200
SWIDTH 602 0
DWIDTH 9 0
BBX 7 13 1 0
BITMAP
24
18
00
3c
66
c0
c0
c0
c0
c0
c0
66
3c
ENDCHAR
STARTCHAR Eacute
ENCODING 201
SWIDTH 602 0
DWIDTH 9 0
BBX 6 13 2 0
BITMAP
18
60
00
fc
c0
c0
c0
f8
c0
c0
c0
c0
fc
ENDCHAR
STARTCHAR Eogonek
ENCODING 202
SWIDTH 602 0
DWIDTH 9 0
BBX 6 12 2 -2
BITMAP
fc
c0
c0
c0
f8
c0
c0
c0
c0
fc
40
30
ENDCHAR
STARTCHAR Ediaeresis
ENCODING 203
SWIDTH 602 0
DWIDTH 9 0
BBX 6 13 2 0
BITMAP
48
48
00
fc
c0
c0
c0
f8
c0
c0
c0
c0
fc
ENDCHAR
STARTCHAR Ecaron
ENCODING 204
SWIDTH 602 0
DWIDTH 9 0
BBX 6 13 2 0
BITMAP
48
30
00
fc
c0
c0
c0
f8
c0
c0
c0
c0
fc
ENDCHAR
STARTCHAR Iacute
ENCODING 205
SWIDTH 602 0
DWIDTH 9 0
BBX 6 13 2 0
BITMAP
18
60
00
fc
30
30
30
30
30
30
30
30
fc
ENDCHAR
STARTCHAR Icircumflex
ENCODING 206
SWIDTH 602 0
DWIDTH 9 0
BBX 6 13 2 0
BITMAP
30
48
00
fc
30
30
30
30
30
30
30
30
fc
ENDCHAR
STARTCHAR Dcaron
ENCODING 207
SWIDTH 602 0
DWIDTH 9 0
BBX 7 13 1 0
BITMAP
48
30
00
f8
cc
c6
c6
c6
c6
c6
c6
cc
f8
ENDCHAR
STARTCHAR Dstroke
ENCODING 208
SWIDTH 602 0
DWIDTH 9 0
BBX 8 10 0 0
BITMAP
7c
66
63
63
fb
63
63
63
66
7c
ENDCHAR
STARTCHAR Nacute
ENCODING 209
SWIDTH 602 0
DWIDTH 9 0
BBX 7 13 1 0
BITMAP
06
18
00
c2
e2
e2
b2
b2
9a
9a
8e
8e
86
ENDCHAR
STARTCHAR Ncaron
ENCODING 210
SWIDTH 602 0
DWIDTH 9 0
BBX 7 13 1 0
BITMAP
24
18
00
c2
e2
e2
b2
b2
9a
9a
8e
8e
86
ENDCHAR
STARTCHAR Oacute
ENCODING 211
SWIDTH 602 0
DWIDTH 9 0
BBX 8 13 1 0
BITMAP
0c
30
00
3c
66
c3
c3
c3
c3
c3
c3
66
3c
ENDCHAR
STARTCHAR Ocircumflex
ENCODING 212
SWIDTH 602 0
DWIDTH 9 0
BBX 8 13 1 0
BITMAP
18
24
00
3c
66
c3
c3
c3
c3
c3
c3
66
3c
ENDCHAR
STARTCHAR Odoubleacute
ENCODING 213
SWIDTH 602 0
DWIDTH 9 0
BBX 8 13 1 0
BITMAP
12
24
00
3c
66
c3
c3
c3
c3
c3
c3
66
3c
ENDCHAR
STARTCHAR Odiaeresis
ENCODING 214
SWIDTH 602 0
DWIDTH 9 0
BBX 8 13 1 0
BITMAP
24
24
00
3c
66
c3
c3
c3
c3
c3
c3
66
3c
ENDCHAR
STARTCHAR multiply
ENCODING 215
SWIDTH 602 0
DWIDTH 9 0
BBX 5 5 2 2
BITMAP
c8
70
20
70
98
ENDCHAR
STARTCHAR Rcaron
ENCODING 216
SWIDTH 602 0
DWIDTH 9 0
BBX 7 13 1 0
BITMAP
48
30
00
f8
cc
cc
cc
d8
f0
cc
cc
c6
c6
ENDCHAR
STARTCHAR Uring
ENCODING 217
SWIDTH 602 0
DWIDTH 9 0
BBX 7 14 1 0
BITMAP
18
24
18
00
c6
c6
c6
c6
c6
c6
c6
c6
6c
38
ENDCHAR
STARTCHAR Uacute
ENCODING 218
SWIDTH 602 0
DWIDTH 9 0
BBX 7 13 1 0
BITMAP
0c
30
00
c6
c6
c6
c6
c6
c6
c6
c6
6c
38
ENDCHAR
STARTCHAR Udoubleacute
ENCODING 219
SWIDTH 602 0
DWIDTH 9 0
BBX 7 13 1 0
BITMAP
12
24
00
c6
c6
c6
c6
c6
c6
c6
c6
6c
38
ENDCHAR
STARTCHAR Udiaeresis
ENCODING 220
SWIDTH 602 0
DWIDTH 9 0
BBX 7 13 1 0
BITMAP
28
28
00
c6
c6
c6
c6
c6
c6
c6
c6
6c
38
ENDCHAR
STARTCHAR Yacute
ENCODING 221
SWIDTH 602 0
DWIDTH 9 0
BBX 8 13 1 0
BITMAP
0c
30
00
c3
c3
62
66
34
18
18
18
18
18
ENDCHAR
STARTCHAR Tcedilla
ENCODING 222
SWIDTH 602 0
DWIDTH 9 0
BBX 8 12 1 -2
BITMAP
ff
18
18
18
18
18
18
18
18
18
08
30
ENDCHAR
STARTCHAR ssharp
ENCODING 223
SWIDTH 602 0
DWIDTH 9 0
BBX 7 11 1 0
BITMAP
78
cc
cc
c8
d8
cc
c6
c6
c6
c6
cc
ENDCHAR
STARTCHAR racute
ENCODING 224
SWIDTH 602 0
DWIDTH 9 0
BBX 6 11 2 0
BITMAP
0c
30
00
cc
dc
e4
c0
c0
c0
c0
c0
ENDCHAR
STARTCHAR aacute
ENCODING 225
SWIDTH 602 0
DWIDTH 9 0
BBX 8 11 1 0
BITMAP
0c
30
00
7c
06
06
7e
c6
c6
ce
77
ENDCHAR
STARTCHAR acircumflex
ENCODING 226
SWIDTH 602 0
DWIDTH 9 0
BBX 8 11 1 0
BITMAP
18
24
00
7c
06
06
7e
c6
c6
ce
77
ENDCHAR
STARTCHAR abreve
ENCODING 227
SWIDTH 602 0
DWIDTH 9 0
BBX 8 11 1 0
BITMAP
44
38
00
7c
06
06
7e
c6
c6
ce
77
ENDCHAR
STARTCHAR adiaeresis
ENCODING 228
SWIDTH 602 0
DWIDTH 9 0
BBX 8 11 1 0
BITMAP
28
28
00
7c
06
06
7e
c6
c6
ce
77
ENDCHAR
STARTCHAR lacute
ENCODING 229
SWIDTH 602 0
DWIDTH 9 0
BBX 6 14 1 0
BITMAP
0c
30
00
f8
18
18
18
18
18
18
18
18
18
18
ENDCHAR
STARTCHAR cacute
ENCODING 230
SWIDTH 602 0
DWIDTH 9 0
BBX 7 11 1 0
BITMAP
06
18
00
3c
66
c0
c0
c0
c0
62
3c
ENDCHAR
STARTCHAR ccedilla
ENCODING 231
SWIDTH 602 0
DWIDTH 9 0
BBX 7 10 1 -2
BITMAP
3c
62
c0
c0
c0
c0
62
3c
08
30
ENDCHAR
STARTCHAR ccaron
ENCODING 232
SWIDTH 602 0
DWIDTH 9 0
BBX 7 11 1 0
BITMAP
24
18
00
3c
66
c0
c0
c0
c0
62
3c
ENDCHAR
STARTCHAR eacute
ENCODING 233
SWIDTH 602 0
DWIDTH 9 0
BBX 7 11 1 0
BITMAP
0c
30
00
3c
66
c6
fe
c0
c0
62
3c
ENDCHAR
STARTCHAR eogonek
ENCODING 234
SWIDTH 602 0
DWIDTH 9 0
BBX 7 10 1 -2
BITMAP
3c
66
c6
fe
c0
c0
62
3c
20
18
ENDCHAR
STARTCHAR ediaeresis
ENCODING 235
SWIDTH 602 0
DWIDTH 9 0
BBX 7 11 1 0
BITMAP
24
24
00
3c
66
c6
fe
c0
c0
62
3c
ENDCHAR
STARTCHAR ecaron
ENCODING 236
SWIDTH 602 0
DWIDTH 9 0
BBX 7 11 1 0
BITMAP
24
18
00
3c
66
c6
fe
c0
c0
62
3c
ENDCHAR
STARTCHAR iacute
ENCODING 237
SWIDTH 602 0
DWIDTH 9 0
BBX 6 11 1 0
BITMAP
0c
30
00
f8
18
18
18
18
18
18
18
ENDCHAR
STARTCHAR icircumflex
ENCODING 238
SWIDTH 602 0
DWIDTH 9 0
BBX 6 11 1 0
BITMAP
18
24
00
f8
18
18
18
18
18
18
18
ENDCHAR
STARTCHAR dcaron
ENCODING 239
SWIDTH 928 0
DWIDTH 13 0
BBX 11 12 1 0
BITMAP
00e0
06e0
0620
06c0
3e00
6600
c600
c600
c600
c600
6e00
3600
ENDCHAR
STARTCHAR dstroke
ENCODING 240
SWIDTH 785 0
DWIDTH 11 0
BBX 9 11 1 0
BITMAP
0600
1f80
0600
3e00
6600
c600
c600
c600
c600
6e00
3600
ENDCHAR
STARTCHAR nacute
ENCODING 241
SWIDTH 602 0
DWIDTH 9 0
BBX 7 11 1 0
BITMAP
06
18
00
dc
ee
c6
c6
c6
c6
c6
c6
ENDCHAR
STARTCHAR ncaron
ENCODING 242
SWIDTH 602 0
DWIDTH 9 0
BBX 7 11 1 0
BITMAP
24
18
00
dc
ee
c6
c6
c6
c6
c6
c6
ENDCHAR
STARTCHAR oacute
ENCODING 243
SWIDTH 602 0
DWIDTH 9 0
BBX 7 11 1 0
BITMAP
0c
30
00
38
6c
c6
c6
c6
c6
6c
38
ENDCHAR
STARTCHAR ocircumflex
ENCODING 244
SWIDTH 602 0
DWIDTH 9 0
BBX 7 11 1 0
BITMAP
18
24
00
38
6c
c6
c6
c6
c6
6c
38
ENDCHAR
STARTCHAR odoubleacute
ENCODING 245
SWIDTH 602 0
DWIDTH 9 0
BBX 7 11 1 0
BITMAP
12
24
00
38
6c
c6
c6
c6
c6
6c
38
ENDCHAR
STARTCHAR odiaeresis
ENCODING 246
SWIDTH 602 0
DWIDTH 9 0
BBX 7 11 1 0
BITMAP
28
28
00
38
6c
c6
c6
c6
c6
6c
38
ENDCHAR
STARTCHAR division
ENCODING 247
SWIDTH 602 0
DWIDTH 9 0
BBX 7 7 1 1
BITMAP
10
10
00
fe
00
10
10
ENDCHAR
STARTCHAR rcaron
ENCODING 248
SWIDTH 602 0
DWIDTH 9 0
BBX 6 11 2 0
BITMAP
48
30
00
cc
dc
e4
c0
c0
c0
c0
c0
ENDCHAR
STARTCHAR uring
ENCODING 249
SWIDTH 602 0
DWIDTH 9 0
BBX 7 12 1 0
BITMAP
18
24
18
00
c6
c6
c6
c6
c6
c6
ee
76
ENDCHAR
STARTCHAR uacute
ENCODING 250
SWIDTH 602 0
DWIDTH 9 0
BBX 7 11 1 0
BITMAP
0c
30
00
c6
c6
c6
c6
c6
c6
ee
76
ENDCHAR
STARTCHAR udoubleacute
ENCODING 251
SWIDTH 602 0
DWIDTH 9 0
BBX 7 11 1 0
BITMAP
12
24
00
c6
c6
c6
c6
c6
c6
ee
76
ENDCHAR
STARTCHAR udiaeresis
ENCODING 252
SWIDTH 602 0
DWIDTH 9 0
BBX 7 11 1 0
BITMAP
28
28
00
c6
c6
c6
c6
c6
c6
ee
76
ENDCHAR
STARTCHAR yacute
ENCODING 253
SWIDTH 602 0
DWIDTH 9 0
BBX 7 13 1 -2
BITMAP
0c
30
00
c6
c6
c6
6c
6c
38
30
30
60
60
ENDCHAR
STARTCHAR tcedilla
ENCODING 254
SWIDTH 602 0
DWIDTH 9 0
BBX 7 12 1 -2
BITMAP
30
30
fe
30
30
30
30
30
30
1e
08
30
ENDCHAR
STARTCHAR abovedot
ENCODING 255
SWIDTH 602 0
DWIDTH 9 0
BBX 2 2 4 9
BITMAP
c0
c0
ENDCHAR
ENDFONT
